<mxfile host="app.diagrams.net" agent="Mozilla/5.0 (Windows NT 10.0; Win64; x64) AppleWebKit/537.36 (KHTML, like Gecko) Chrome/127.0.0.0 Safari/537.36" version="24.7.17">
  <diagram name="Page-1" id="13e1069c-82ec-6db2-03f1-153e76fe0fe0">
    <mxGraphModel grid="1" page="1" gridSize="10" guides="1" tooltips="1" connect="1" arrows="1" fold="1" pageScale="1" pageWidth="1100" pageHeight="850" background="none" math="0" shadow="0">
      <root>
        <mxCell id="0" />
        <mxCell id="1" parent="0" />
        <mxCell id="cHudv0S-aBN3M7Isd4sT-40" value="" style="rounded=0;whiteSpace=wrap;html=1;fillColor=none;" vertex="1" parent="1">
          <mxGeometry x="177.5" y="90" width="465" height="350" as="geometry" />
        </mxCell>
        <mxCell id="cHudv0S-aBN3M7Isd4sT-15" value="Usuário" style="shape=umlActor;verticalLabelPosition=bottom;verticalAlign=top;html=1;outlineConnect=0;" vertex="1" parent="1">
          <mxGeometry x="80" y="220" width="30" height="60" as="geometry" />
        </mxCell>
        <mxCell id="cHudv0S-aBN3M7Isd4sT-22" value="Realizar login" style="ellipse;whiteSpace=wrap;html=1;" vertex="1" parent="1">
          <mxGeometry x="195" y="320" width="100" height="60" as="geometry" />
        </mxCell>
        <mxCell id="cHudv0S-aBN3M7Isd4sT-23" value="Realizar cadastro" style="ellipse;whiteSpace=wrap;html=1;" vertex="1" parent="1">
          <mxGeometry x="200" y="100" width="100" height="60" as="geometry" />
        </mxCell>
        <mxCell id="cHudv0S-aBN3M7Isd4sT-24" value="Emitir certificado" style="ellipse;whiteSpace=wrap;html=1;" vertex="1" parent="1">
          <mxGeometry x="530" y="320" width="100" height="60" as="geometry" />
        </mxCell>
        <mxCell id="cHudv0S-aBN3M7Isd4sT-25" value="Questionário" style="ellipse;whiteSpace=wrap;html=1;" vertex="1" parent="1">
          <mxGeometry x="360" y="320" width="100" height="60" as="geometry" />
        </mxCell>
        <mxCell id="cHudv0S-aBN3M7Isd4sT-27" value="Ver conteúdo" style="ellipse;whiteSpace=wrap;html=1;" vertex="1" parent="1">
          <mxGeometry x="200" y="210" width="90" height="60" as="geometry" />
        </mxCell>
        <mxCell id="cHudv0S-aBN3M7Isd4sT-30" value="" style="endArrow=classic;html=1;rounded=0;" edge="1" parent="1">
          <mxGeometry width="50" height="50" relative="1" as="geometry">
            <mxPoint x="130" y="249.58" as="sourcePoint" />
            <mxPoint x="190" y="249.58" as="targetPoint" />
          </mxGeometry>
        </mxCell>
        <mxCell id="cHudv0S-aBN3M7Isd4sT-34" value="" style="endArrow=classic;html=1;rounded=0;dashed=1;entryX=0;entryY=0.5;entryDx=0;entryDy=0;" edge="1" parent="1">
          <mxGeometry width="50" height="50" relative="1" as="geometry">
            <mxPoint x="300" y="349.58" as="sourcePoint" />
            <mxPoint x="350" y="349.58" as="targetPoint" />
          </mxGeometry>
        </mxCell>
        <mxCell id="cHudv0S-aBN3M7Isd4sT-35" value="" style="endArrow=classic;html=1;rounded=0;dashed=1;entryX=0;entryY=0.5;entryDx=0;entryDy=0;" edge="1" parent="1">
          <mxGeometry width="50" height="50" relative="1" as="geometry">
            <mxPoint x="475" y="350" as="sourcePoint" />
            <mxPoint x="525" y="349.58" as="targetPoint" />
          </mxGeometry>
        </mxCell>
        <mxCell id="cHudv0S-aBN3M7Isd4sT-38" value="" style="endArrow=classic;html=1;rounded=0;" edge="1" parent="1">
          <mxGeometry width="50" height="50" relative="1" as="geometry">
            <mxPoint x="130" y="290.00000000000006" as="sourcePoint" />
            <mxPoint x="190" y="330" as="targetPoint" />
          </mxGeometry>
        </mxCell>
        <mxCell id="cHudv0S-aBN3M7Isd4sT-39" value="" style="endArrow=classic;html=1;rounded=0;" edge="1" parent="1">
          <mxGeometry width="50" height="50" relative="1" as="geometry">
            <mxPoint x="120" y="210.00000000000006" as="sourcePoint" />
            <mxPoint x="200" y="160" as="targetPoint" />
          </mxGeometry>
        </mxCell>
        <mxCell id="cHudv0S-aBN3M7Isd4sT-41" value="Site de curso Scrum" style="text;html=1;align=center;verticalAlign=middle;whiteSpace=wrap;rounded=0;" vertex="1" parent="1">
          <mxGeometry x="525" y="90" width="110" height="30" as="geometry" />
        </mxCell>
        <mxCell id="cHudv0S-aBN3M7Isd4sT-45" value="&amp;lt;&amp;lt;include&amp;gt;&amp;gt;" style="text;html=1;align=center;verticalAlign=middle;whiteSpace=wrap;rounded=0;" vertex="1" parent="1">
          <mxGeometry x="740" y="210" width="60" height="30" as="geometry" />
        </mxCell>
        <mxCell id="cHudv0S-aBN3M7Isd4sT-48" value="" style="endArrow=classic;html=1;rounded=0;dashed=1;" edge="1" parent="1">
          <mxGeometry width="50" height="50" relative="1" as="geometry">
            <mxPoint x="430" y="320" as="sourcePoint" />
            <mxPoint x="460" y="270" as="targetPoint" />
          </mxGeometry>
        </mxCell>
        <mxCell id="cHudv0S-aBN3M7Isd4sT-50" value="" style="endArrow=classic;html=1;rounded=0;dashed=1;" edge="1" parent="1">
          <mxGeometry width="50" height="50" relative="1" as="geometry">
            <mxPoint x="390" y="320" as="sourcePoint" />
            <mxPoint x="370" y="270" as="targetPoint" />
          </mxGeometry>
        </mxCell>
        <mxCell id="cHudv0S-aBN3M7Isd4sT-51" value="&amp;lt;&amp;lt;include&amp;gt;&amp;gt;" style="text;html=1;align=center;verticalAlign=middle;whiteSpace=wrap;rounded=0;" vertex="1" parent="1">
          <mxGeometry x="450" y="290" width="60" height="30" as="geometry" />
        </mxCell>
        <mxCell id="cHudv0S-aBN3M7Isd4sT-52" value="&amp;lt;&amp;lt;include&amp;gt;&amp;gt;" style="text;html=1;align=center;verticalAlign=middle;whiteSpace=wrap;rounded=0;" vertex="1" parent="1">
          <mxGeometry x="320" y="290" width="60" height="30" as="geometry" />
        </mxCell>
        <mxCell id="cHudv0S-aBN3M7Isd4sT-53" value="Responder" style="ellipse;whiteSpace=wrap;html=1;" vertex="1" parent="1">
          <mxGeometry x="430" y="210" width="100" height="60" as="geometry" />
        </mxCell>
        <mxCell id="cHudv0S-aBN3M7Isd4sT-54" value="Visualizar" style="ellipse;whiteSpace=wrap;html=1;" vertex="1" parent="1">
          <mxGeometry x="320" y="210" width="100" height="60" as="geometry" />
        </mxCell>
      </root>
    </mxGraphModel>
  </diagram>
</mxfile>
